<?xml version="1.0"?>
<svg xmlns="http://www.w3.org/2000/svg" xmlns:xlink="http://www.w3.org/1999/xlink" xmlns:svgjs="http://svgjs.com/svgjs" version="1.1" width="512" height="512" x="0" y="0" viewBox="0 0 512.015 512.015" style="enable-background:new 0 0 512 512" xml:space="preserve"><g><g xmlns="http://www.w3.org/2000/svg"><path d="m199.71 245.434c-11.037-9.284-24.709-13.41-38.187-10.769-11.34 2.837-18.907 13.917-17.133 25.71v-.001c5.106 28.032 44.886 24.832 45.706-3.423 7.632 6.508 12.718 15.961 14.323 26.637.597 4.117 4.524 6.932 8.531 6.303 4.096-.616 6.917-4.436 6.302-8.531-2.151-14.308-9.091-27.068-19.542-35.926zm-31.409 19.421c-4.231.727-8.528-2.453-9.079-6.709v-.001c-1.168-6.877 7.131-11.847 12.633-7.611 5.686 4.016 3.36 13.423-3.554 14.321z" fill="#000000" data-original="#000000" style=""/><path d="m354.386 234.665c-28.048-5.675-54.245 18.905-57.726 46.695-1.225 9.778 13.082 12.014 14.833 2.23 1.605-10.676 6.691-20.13 14.323-26.637.831 28.279 40.611 31.432 45.707 3.424 0 0 0 0 0-.001 1.772-11.796-5.796-22.876-17.137-25.711zm2.303 23.481c-1.82 10.368-17.079 8.085-15.785-2.376 1.809-10.361 17.075-8.071 15.785 2.376z" fill="#000000" data-original="#000000" style=""/><path d="m478.609 121.972c-4.046-5.186-10.143-8.063-16.7-7.974-29.527-.067-70.929 10.312-93.527 41.246-2.067-1.546-4.201-3.005-6.391-4.383l1.778-18.745c.458-4.774-.932-9.516-3.728-13.289 4.735-15.564 11.336-30.502 19.7-44.445 9.011-15.032 20.007-28.836 32.683-41.029 6.634-6.385 7.899-15.975 3.146-23.864-4.802-7.97-13.965-11.367-22.804-8.458-13.592 4.485-26.55 10.656-38.518 18.343-19.666 11.672-55.996 46.881-70.499 89.848-5.016 3.13-8.328 8.396-8.893 14.446l-1.19 12.515h-33.406l-1.184-12.515c-.542-5.906-3.847-11.301-8.893-14.424-7.23-19.899-17.772-38.203-31.258-54.503-2.642-3.191-7.371-3.634-10.56-.994-3.19 2.642-3.635 7.37-.994 10.56 10.657 12.885 19.322 27.123 25.775 42.528-.293.04-45.674 4.308-45.918 4.365-10.755-33.556-29.888-64.232-55.326-88.657-2.228-2.145-1.231-4.431-.699-5.314.557-.924 2.186-2.964 5.255-1.953 12.394 4.089 24.206 9.713 35.106 16.716 5.242 3.369 10.592 7.4 15.902 11.98 3.137 2.706 7.873 2.355 10.578-.781 2.706-3.136 2.356-7.872-.781-10.578-5.84-5.038-11.758-9.492-17.59-13.241-11.965-7.686-24.923-13.857-38.518-18.342-8.836-2.913-17.999.487-22.801 8.458-4.753 7.889-3.488 17.479 3.147 23.865 24.435 23.452 42.591 53.105 52.39 85.5-2.738 3.684-4.198 8.343-3.737 13.271l1.885 19.365c-2.514 1.625-4.949 3.363-7.295 5.21-22.533-31.96-64.327-42.77-94.634-42.7-6.58-.096-12.658 2.788-16.704 7.973-4.049 5.189-5.389 11.807-3.677 18.153 9.18 36.271 33.711 74.941 78.492 86.361-4.596 75.688 52.499 73.624 53.528 154.285 0 19.555 5.742 37.792 15.625 53.118 1.322 42.609 39.492 78.959 82.174 78.112 42.168.849 80.005-34.653 82.086-76.668 10.464-15.618 16.576-34.388 16.576-54.561-.995-29.788 8.532-60.767 27.303-83.54 16.482-19.904 23.278-46.065 21.231-71.634 43.116-12.072 66.738-50.621 75.539-85.468 1.715-6.351.375-12.97-3.674-18.158zm-116.25-89.979c10.902-7.003 22.714-12.628 35.105-16.716 3.075-1.016 4.701 1.028 5.258 1.952.532.884 1.53 3.17-.698 5.313-25.44 24.426-44.571 55.1-55.326 88.654-.146-.036-45.731-4.336-45.919-4.362 14.281-36.534 46.884-66.312 61.58-74.841zm-72.567 93.082c.359-2.658 2.377-3.91 4.574-3.78 0 0 50.697 4.807 50.697 4.807.751.07 1.469.344 2.085.8 1.201.887 1.833 2.299 1.69 3.788l-1.209 12.743c-11.273-4.667-23.619-7.25-36.559-7.25h-22.335zm-124.705 5.625c-.216-2.317 1.483-4.38 3.787-4.6l50.686-4.806c1.116-.103 2.209.229 3.074.945.867.717 1.403 1.729 1.509 2.845l1.05 11.099h-21.241c-13.332 0-26.037 2.739-37.584 7.678zm-84.529 65.768c-22.178-17.301-32.29-45.168-36.345-60.245-1.074-3.539 1.963-7.404 5.634-7.227 24.574.039 63.644 8.083 83.804 37.944-11.4 12.295-19.623 27.573-23.355 44.519-11.458-3.486-21.438-8.509-29.738-14.991zm226.579 280.815c-32.965 33.455-90.445 22.584-109.157-20.358 33.694 28.774 88.353 29.304 122.605 1.126-3.29 7.071-7.806 13.588-13.448 19.232zm-45.523-62.418c-.059.097-.115.194-.169.294l-4.244 7.756-4.757-7.904-4.276-7.743c4.503.053 13.572.062 18.058.005zm130.357-178.091c0 18.533-6.426 36.643-18.095 50.994-20.924 25.42-31.693 59.791-30.665 93.003 0 44.218-34.642 80.481-78.2 83.094v-23.974l9.511-17.384 11.497-18.927c1.411-2.323 1.455-5.228.115-7.592-1.34-2.365-3.857-3.819-6.573-3.802l-22.002.142-22.098-.142c-2.66-.017-5.135 1.379-6.495 3.668s-1.405 5.127-.118 7.458l10.533 19.072c.045.081.092.162.14.241l10.491 17.43v23.357c-41.208-4.946-73.262-40.109-73.262-82.643.069-32.978-12.129-65.465-34.337-91.468-13.619-15.784-20.215-36.414-19.361-57.19 0-44.625 36.292-80.929 80.901-80.929h107.117c46.411-.144 83.291 39.403 80.901 85.592zm75.83-100.545c-6.939 27.072-25.592 63.14-63.278 74.301-4.014-17.398-12.777-32.997-24.839-45.364 4.61-6.04 9.709-11.271 15.224-15.575 22.167-17.292 51.655-20.326 67.265-20.595 3.698-.18 6.694 3.692 5.628 7.233z" fill="#000000" data-original="#000000" style=""/></g></g></svg>
